<?xml version="1.0" encoding="UTF-8" standalone="no"?>
<svg
   xmlns:dc="http://purl.org/dc/elements/1.1/"
   xmlns:cc="http://creativecommons.org/ns#"
   xmlns:rdf="http://www.w3.org/1999/02/22-rdf-syntax-ns#"
   xmlns:svg="http://www.w3.org/2000/svg"
   xmlns="http://www.w3.org/2000/svg"
   xmlns:sodipodi="http://sodipodi.sourceforge.net/DTD/sodipodi-0.dtd"
   xmlns:inkscape="http://www.inkscape.org/namespaces/inkscape"
   viewBox="0 0 59.67 59.67"
   version="1.1"
   id="svg4549"
   sodipodi:docname="telegram.svg"
   inkscape:version="0.92.1 r">
  <metadata
     id="metadata4553">
    <rdf:RDF>
      <cc:Work
         rdf:about="">
        <dc:format>image/svg+xml</dc:format>
        <dc:type
           rdf:resource="http://purl.org/dc/dcmitype/StillImage" />
      </cc:Work>
    </rdf:RDF>
  </metadata>
  <sodipodi:namedview
     pagecolor="#ffffff"
     bordercolor="#666666"
     borderopacity="1"
     objecttolerance="10"
     gridtolerance="10"
     guidetolerance="10"
     inkscape:pageopacity="0"
     inkscape:pageshadow="2"
     inkscape:window-width="1366"
     inkscape:window-height="736"
     id="namedview4551"
     showgrid="false"
     inkscape:zoom="9.2843978"
     inkscape:cx="29.834999"
     inkscape:cy="29.834999"
     inkscape:window-x="0"
     inkscape:window-y="32"
     inkscape:window-maximized="1"
     inkscape:current-layer="svg4549" />
  <defs
     id="defs4541">
    <style
       id="style4539">.cls-1{fill:#373737;}</style>
  </defs>
  <title
     id="title4543">Asset 55</title>
  <g
     id="Layer_2"
     data-name="Layer 2"
     style="fill:#eff0f1;fill-opacity:1">
    <g
       id="Layer_1-2"
       data-name="Layer 1"
       style="fill:#eff0f1;fill-opacity:1">
      <path
         class="cls-1"
         d="M29.83,59.67A29.84,29.84,0,1,1,59.67,29.88,29.82,29.82,0,0,1,29.83,59.67ZM42.75,20.38a1.93,1.93,0,0,0-1.69-2.17,3.53,3.53,0,0,0-1.75.26L26.12,23.1l-10,3.51c-1.86.66-2.24,2.4-.88,3.84a4.9,4.9,0,0,0,1.54,1c2.57,1.22,5.12,2.49,7.67,3.75a2.72,2.72,0,0,1,1.26,1.32c1.26,2.57,2.53,5.13,3.79,7.7A5.91,5.91,0,0,0,30.73,46a2,2,0,0,0,3.38-.69c.21-.49.37-1,.55-1.5Q36.82,37.66,39,31.5c.93-2.65,1.89-5.29,2.81-8A12.92,12.92,0,0,0,42.75,20.38Z"
         id="path4545"
         style="fill:#eff0f1;fill-opacity:1" />
    </g>
  </g>
</svg>
