<?xml version="1.0" encoding="UTF-8" standalone="no"?>
<svg
   xmlns:dc="http://purl.org/dc/elements/1.1/"
   xmlns:cc="http://creativecommons.org/ns#"
   xmlns:rdf="http://www.w3.org/1999/02/22-rdf-syntax-ns#"
   xmlns:svg="http://www.w3.org/2000/svg"
   xmlns="http://www.w3.org/2000/svg"
   xmlns:sodipodi="http://sodipodi.sourceforge.net/DTD/sodipodi-0.dtd"
   xmlns:inkscape="http://www.inkscape.org/namespaces/inkscape"
   viewBox="0 0 59.67 59.67"
   version="1.1"
   id="svg4549"
   sodipodi:docname="telegram_gray.svg"
   inkscape:version="0.92.2 (5c3e80d, 2017-08-06)">
  <metadata
     id="metadata4553">
    <rdf:RDF>
      <cc:Work
         rdf:about="">
        <dc:format>image/svg+xml</dc:format>
        <dc:type
           rdf:resource="http://purl.org/dc/dcmitype/StillImage" />
        <dc:title>Asset 55</dc:title>
      </cc:Work>
    </rdf:RDF>
  </metadata>
  <sodipodi:namedview
     pagecolor="#ffffff"
     bordercolor="#666666"
     borderopacity="1"
     objecttolerance="10"
     gridtolerance="10"
     guidetolerance="10"
     inkscape:pageopacity="0"
     inkscape:pageshadow="2"
     inkscape:window-width="1533"
     inkscape:window-height="845"
     id="namedview4551"
     showgrid="false"
     inkscape:zoom="6.5650606"
     inkscape:cx="30.382065"
     inkscape:cy="31.957219"
     inkscape:window-x="67"
     inkscape:window-y="27"
     inkscape:window-maximized="1"
     inkscape:current-layer="svg4549" />
  <defs
     id="defs4541">
    <style
       id="style4539">.cls-1{fill:#373737;}</style>
    <style
       id="style4539-3">.cls-1{fill:#373737;}</style>
  </defs>
  <title
     id="title4543">Asset 55</title>
  <g
     id="Layer_2"
     data-name="Layer 2"
     style="fill:#cccccc;fill-opacity:1"
     transform="matrix(0.83780161,0,0,0.83780151,1.0083429,0.97837644)">
    <g
       id="Layer_1-2"
       data-name="Layer 1"
       style="fill:#cccccc;fill-opacity:1">
      <path
         class="cls-1"
         d="M 29.83,59.67 A 29.84,29.84 0 1 1 59.67,29.88 29.82,29.82 0 0 1 29.83,59.67 Z M 42.75,20.38 a 1.93,1.93 0 0 0 -1.69,-2.17 3.53,3.53 0 0 0 -1.75,0.26 l -13.19,4.63 -10,3.51 c -1.86,0.66 -2.24,2.4 -0.88,3.84 a 4.9,4.9 0 0 0 1.54,1 c 2.57,1.22 5.12,2.49 7.67,3.75 a 2.72,2.72 0 0 1 1.26,1.32 c 1.26,2.57 2.53,5.13 3.79,7.7 a 5.91,5.91 0 0 0 1.23,1.78 2,2 0 0 0 3.38,-0.69 c 0.21,-0.49 0.37,-1 0.55,-1.5 Q 36.82,37.66 39,31.5 c 0.93,-2.65 1.89,-5.29 2.81,-8 a 12.92,12.92 0 0 0 0.94,-3.12 z"
         id="path4545"
         style="fill:#cccccc;fill-opacity:1"
         inkscape:connector-curvature="0" />
    </g>
  </g>
  <circle
     style="color:#000000;display:inline;overflow:visible;visibility:visible;opacity:1;fill:#8a8a8a;fill-opacity:1;fill-rule:nonzero;stroke:#000000;stroke-width:1.26633203;stroke-linecap:butt;stroke-opacity:0;marker:none;enable-background:accumulate"
     id="path4486"
     cx="40.060001"
     cy="40.077999"
     r="18.866835" />
  <g
     id="g4525"
     transform="matrix(0.63609844,0,0,0.66054812,-8.2843677,27.693387)">
    <text
       transform="scale(0.88230377,1.1333965)"
       id="text4489"
       y="28.923059"
       x="86.311691"
       style="font-style:italic;font-variant:normal;font-weight:normal;font-stretch:normal;font-size:33.58008194px;line-height:125%;font-family:Nazli;-inkscape-font-specification:'Sans Italic';text-align:center;letter-spacing:0px;word-spacing:0px;text-anchor:middle;fill:#000000;fill-opacity:1;stroke:none;stroke-width:1.07337558px;stroke-linecap:butt;stroke-linejoin:miter;stroke-opacity:1"
       xml:space="preserve">
    <tspan
         style="font-style:normal;font-variant:normal;font-weight:normal;font-stretch:normal;font-size:33.58008194px;font-family:'Noto Sans';-inkscape-font-specification:'Noto Sans';fill:#eff0f1;fill-opacity:1;stroke-width:1.07337558px"
         y="28.923059"
         x="86.311691"
         id="tspan4487"
         sodipodi:role="line">999</tspan></text>
  </g>
</svg>
